<?xml version="1.0" encoding="UTF-8"?>
<svg version="1.1" xmlns="http://www.w3.org/2000/svg" width="300" height="302">
<path d="M0 0 C99 0 198 0 300 0 C300 99.66 300 199.32 300 302 C201 302 102 302 0 302 C0 202.34 0 102.68 0 0 Z " fill="#E0E3C1" transform="translate(0,0)"/>
<path d="M0 0 C3.89683824 0.8118413 5.4714664 1.50151732 8 4.625 C8.42647695 8.06920628 8.229816 11.13179683 8 14.625 C14.27 14.625 20.54 14.625 27 14.625 C26.9175 13.0575 26.835 11.49 26.75 9.875 C26.76450669 6.46109131 26.79019444 4.97747335 28.5625 2 C31.96102671 0.08288237 34.15968535 0.07638362 38 0.625 C40.77438659 2.34961869 41.74518241 3.77900561 42.68359375 6.89453125 C43.19249459 9.12316597 43.60272685 11.37378548 44 13.625 C49.61 13.625 55.22 13.625 61 13.625 C60.9175 12.2225 60.835 10.82 60.75 9.375 C60.77011765 6.18132282 60.85493811 4.87281406 62.5 2.0625 C66.05447381 0.01867756 68.99870909 -0.14574046 73 0.625 C75.5 2 75.5 2 77 4.625 C77.3204438 8.03238577 77.18095403 11.18687341 77 14.625 C82.61 14.625 88.22 14.625 94 14.625 C93.9175 13.243125 93.835 11.86125 93.75 10.4375 C93.77102246 7.10544087 93.99525465 5.63468841 95.5 2.5625 C98.36216224 0.34432427 100.40707088 -0.11156399 104.02734375 0.15234375 C107.64863713 1.02001999 108.9973443 2.55843346 111 5.625 C111.1953125 7.89282227 111.1953125 7.89282227 111.125 10.31640625 C111.10695312 11.12408447 111.08890625 11.9317627 111.0703125 12.76391602 C111.04710937 13.37807373 111.02390625 13.99223145 111 14.625 C111.9446814 14.60143433 111.9446814 14.60143433 112.90844727 14.57739258 C115.79303825 14.51459768 118.67748486 14.47586942 121.5625 14.4375 C122.55314453 14.41236328 123.54378906 14.38722656 124.56445312 14.36132812 C132.17079401 14.28551742 137.73497356 15.31429946 143.75 20.3125 C144.30171875 20.74949219 144.8534375 21.18648437 145.421875 21.63671875 C150.56532256 28.11695343 150.42957382 35.5453207 150.38476562 43.421875 C150.3901384 44.58062134 150.39551117 45.73936768 150.40104675 46.93322754 C150.41079927 49.43874447 150.41377658 51.94429509 150.41069031 54.4498291 C150.40620117 58.41816795 150.41981867 62.38621907 150.43908691 66.35449219 C150.48003089 75.49316199 150.49147064 84.63182287 150.50261688 93.77056885 C150.51314488 102.15168721 150.53001785 110.53266691 150.57071257 118.9137001 C150.59192486 123.48520584 150.59022587 128.0563905 150.58459473 132.62792969 C150.5939368 135.02799834 150.60410598 137.42806396 150.61523438 139.828125 C150.60908615 140.90888306 150.60293793 141.98964111 150.59660339 143.10314941 C150.64738591 149.35067747 151.49323258 153.90073495 154 159.625 C154.40405273 162.27050781 154.40405273 162.27050781 154.43359375 164.578125 C154.44487305 165.43897705 154.45615234 166.2998291 154.46777344 167.18676758 C154.4577832 168.07388428 154.44779297 168.96100098 154.4375 169.875 C154.43137695 170.80014404 154.42525391 171.72528809 154.41894531 172.6784668 C154.25413501 179.91300512 153.0484557 186.02001264 150 192.625 C149.71125 193.3675 149.4225 194.11 149.125 194.875 C144.67418281 205.36621195 134.99419355 209.49167796 125 213.625 C124.26523438 214.00398437 123.53046875 214.38296875 122.7734375 214.7734375 C118.33738154 216.13549412 113.92483267 215.95294653 109.3125 215.9375 C107.89807617 215.96166992 107.89807617 215.96166992 106.45507812 215.98632812 C105.51728516 215.98697266 104.57949219 215.98761719 103.61328125 215.98828125 C102.77579346 215.99126221 101.93830566 215.99424316 101.07543945 215.99731445 C98.28075299 215.65898812 96.16613709 215.03207161 93.52386475 214.1257782 C87.79979713 212.38632926 82.49164703 212.20423123 76.54272461 212.24023438 C75.44381393 212.2348616 74.34490326 212.22948883 73.21269226 212.22395325 C70.84362984 212.21422296 68.47453197 212.21121661 66.10545158 212.21430969 C62.3508558 212.21881174 58.59672533 212.20472031 54.84217834 212.18591309 C46.19772277 212.14613609 37.55330069 212.13353382 28.90877533 212.12238312 C20.34351267 212.1110063 11.77843569 212.0879241 3.21325874 212.04499817 C-0.47649587 212.03146515 -4.16595862 212.03559143 -7.85572815 212.04040527 C-10.12786222 212.03106175 -12.3999931 212.0208922 -14.67211914 212.00976562 C-15.6900354 212.01591385 -16.70795166 212.02206207 -17.75671387 212.02839661 C-26.58554004 211.9527333 -33.60947904 210.34574393 -40.39453125 204.515625 C-46.95219817 196.79321432 -46.58366725 189.44091401 -46.54931641 179.73486328 C-46.55801828 178.11297673 -46.56838713 176.49109839 -46.58029175 174.86923218 C-46.60701387 170.4765274 -46.60823566 166.08416738 -46.60316515 161.69139719 C-46.60102163 158.01855112 -46.61080295 154.34577421 -46.62037599 150.672943 C-46.64254658 142.0047281 -46.64345248 133.33668655 -46.63134766 124.66845703 C-46.61926973 115.73926681 -46.64388955 106.81070702 -46.68648779 97.88162434 C-46.72176635 90.20323371 -46.73371522 82.52504332 -46.72721231 74.84657466 C-46.72359341 70.26592094 -46.72878974 65.68571689 -46.75664139 61.10513687 C-46.78186567 56.79561161 -46.77784889 52.48706598 -46.75181961 48.17755508 C-46.74710324 46.60101993 -46.75250338 45.02441511 -46.76906586 43.4479599 C-46.85721635 34.40139637 -46.41563532 27.525288 -40 20.625 C-35.05522863 15.68022863 -28.96454988 13.47456335 -22.0625 13.33203125 C-20.37474792 13.35165627 -18.68710947 13.38696446 -17 13.4375 C-15.69482422 13.45780273 -15.69482422 13.45780273 -14.36328125 13.47851562 C-12.24191373 13.51348322 -10.12087026 13.5672747 -8 13.625 C-8.04382813 12.54089844 -8.08765625 11.45679688 -8.1328125 10.33984375 C-7.96375642 5.61124565 -7.96375642 5.61124565 -5.875 3.1875 C-3 0.625 -3 0.625 0 0 Z " fill="#1D181B" transform="translate(97,44.375)"/>
<path d="M0 0 C58.08 0 116.16 0 176 0 C176 22.77 176 45.54 176 69 C171.38 66.36 166.76 63.72 162 61 C151.34881113 56.5152889 138.06269607 55.88177865 127.25 60.25 C123.27445142 62.19944255 119.52835311 64.31173097 116 67 C114.5459375 67.99 114.5459375 67.99 113.0625 69 C106.2905522 74.75615563 100.84231281 85.55575242 99.68481445 94.41137695 C99.52644015 97.03273608 99.48163623 99.62398023 99.5 102.25 C99.50640503 103.63771606 99.50640503 103.63771606 99.51293945 105.0534668 C99.74730997 114.5053068 102.63910773 121.24876771 107.59887695 129.16674805 C108.04866409 129.8851738 108.49845123 130.60359955 108.96186829 131.34379578 C109.30445175 131.89034317 109.64703522 132.43689056 110 133 C96.80457047 133.11586 83.60926198 133.20469872 70.41342735 133.25906086 C64.28601487 133.2851523 58.15895045 133.32054321 52.03173828 133.37719727 C46.11840012 133.43153149 40.20539669 133.46142394 34.29182816 133.47438622 C32.03595332 133.48362342 29.78009677 133.50166162 27.52436447 133.52865028 C24.36398508 133.56495812 21.20498806 133.56994445 18.04443359 133.56762695 C16.64612808 133.59459152 16.64612808 133.59459152 15.21957397 133.62210083 C10.97547178 133.5884351 7.93155937 133.4210456 4.4972229 130.77702332 C0.79000779 126.65443466 -0.25172159 123.21771831 -0.24050903 117.72917175 C-0.24326403 116.68951106 -0.24601902 115.64985037 -0.2488575 114.57868481 C-0.24166128 113.44436677 -0.23446507 112.31004873 -0.22705078 111.14135742 C-0.22729185 109.92155591 -0.22753292 108.7017544 -0.2277813 107.4449892 C-0.22678934 104.82146358 -0.22223987 102.19825526 -0.21115112 99.57478333 C-0.19614597 95.81434466 -0.19094092 92.05404445 -0.18920898 88.2935791 C-0.17872497 79.25820013 -0.15080256 70.22284821 -0.125 61.1875 C-0.08375 40.995625 -0.0425 20.80375 0 0 Z " fill="#D3DBBA" transform="translate(61,112)"/>
<path d="M0 0 C5.61 0 11.22 0 17 0 C17.22786458 2.21354167 17.45572917 4.42708333 17.68359375 6.640625 C18.10121863 9.87890597 18.10121863 9.87890597 19 13 C23.47254497 14.49084832 27.52745503 14.49084832 32 13 C32.66 9.04 33.32 5.08 34 1 C37.56331377 0.89192983 41.1233422 0.81264684 44.6875 0.75 C46.19860352 0.69972656 46.19860352 0.69972656 47.74023438 0.6484375 C55.21409435 0.54977268 55.21409435 0.54977268 59.08203125 2.765625 C66.94167109 11.9218653 63 18.42432317 63 33 C4.92 33 -53.16 33 -113 33 C-113 8 -113 8 -108 2 C-105.54724859 0.7736243 -103.9494219 0.88584686 -101.2109375 0.90234375 C-100.26992187 0.90556641 -99.32890625 0.90878906 -98.359375 0.91210938 C-96.88210937 0.92467773 -96.88210937 0.92467773 -95.375 0.9375 C-94.38242188 0.94201172 -93.38984375 0.94652344 -92.3671875 0.95117188 C-89.9113984 0.96297855 -87.45572896 0.979446 -85 1 C-84.89042969 1.68707031 -84.78085938 2.37414062 -84.66796875 3.08203125 C-84.50941406 3.98308594 -84.35085937 4.88414063 -84.1875 5.8125 C-84.03667969 6.70582031 -83.88585937 7.59914063 -83.73046875 8.51953125 C-82.9297504 11.23854812 -82.27574339 12.34049116 -80 14 C-75.41551982 14.59525924 -75.41551982 14.59525924 -71.35546875 12.80078125 C-69.62896597 10.50707006 -69.28842196 8.63142237 -68.8125 5.8125 C-68.544375 4.224375 -68.27625 2.63625 -68 1 C-62.39 1 -56.78 1 -51 1 C-50.34 4.96 -49.68 8.92 -49 13 C-45.44646071 14.1845131 -42.72986522 14.26641894 -39 14 C-35.90890163 11.76060569 -35.43154289 9.47913869 -34.8125 5.8125 C-34.544375 4.224375 -34.27625 2.63625 -34 1 C-28.06 1 -22.12 1 -16 1 C-15.9175 2.4025 -15.835 3.805 -15.75 5.25 C-15.38634428 8.41330661 -15.09682729 9.85296596 -13.3125 12.5625 C-10.29002398 14.44133644 -8.49872367 14.5210865 -5 14 C-2.62674972 12.27190514 -2.044294 11.16367462 -1.26953125 8.30078125 C-1.04330078 6.82158203 -1.04330078 6.82158203 -0.8125 5.3125 C-0.544375 3.559375 -0.27625 1.80625 0 0 Z " fill="#93A780" transform="translate(174,69)"/>
<path d="M0 0 C8.66498939 5.42420096 14.50232759 12.38140087 18 22 C19.10638218 32.64079334 18.58915278 43.20863704 12.3125 52.1875 C5.06909753 60.97545153 -2.3017109 66.16986913 -13.83984375 67.4140625 C-25.00985204 68.00054497 -34.45672376 65.45414997 -43 58 C-45.27110455 55.50445688 -47.14727066 52.81716379 -49 50 C-49.41894531 49.37738281 -49.83789062 48.75476563 -50.26953125 48.11328125 C-54.82727643 39.91578196 -54.15313268 28.9336695 -52.41015625 19.96484375 C-49.3296419 11.00721906 -42.05537614 3.69948216 -34.01953125 -1.0625 C-23.19077949 -6.0893867 -10.52436732 -5.5833498 0 0 Z " fill="#ECA54B" transform="translate(223,183)"/>
<path d="M0 0 C99 0 198 0 300 0 C300 99.66 300 199.32 300 302 C201 302 102 302 0 302 C0 202.34 0 102.68 0 0 Z M11.75 17.484375 C4.3586211 28.10948216 1.68027781 38.6874052 1.73930359 51.47384644 C1.73547804 52.37230541 1.73165249 53.27076439 1.72771102 54.1964494 C1.71747267 57.17773972 1.72135561 60.15883413 1.7253418 63.14013672 C1.72099025 65.28960344 1.71580563 67.43906861 1.70985413 69.58853149 C1.69650071 75.40675889 1.69588137 81.22492119 1.69841743 87.04316092 C1.69948959 91.90880958 1.6945975 96.7744452 1.689812 101.64009106 C1.67872952 113.12318918 1.67827237 124.60625459 1.68432617 136.08935547 C1.69036595 147.91704302 1.67805187 159.7446116 1.6567561 171.57227886 C1.63911675 181.74499069 1.63314242 191.91766473 1.63639385 202.09039128 C1.63820307 208.15822342 1.63560645 214.22597068 1.62167931 220.29378891 C1.60906759 226.00169651 1.61107675 231.70941918 1.62409019 237.41732407 C1.62644821 239.50539209 1.62374924 241.59347326 1.61546707 243.68152618 C1.5507868 261.26369372 2.87257212 275.24493483 15.25 288.8125 C24.37606756 297.34383506 35.23390641 300.31221307 47.391922 300.26742554 C48.76260685 300.27422221 48.76260685 300.27422221 50.16098231 300.28115618 C53.20608795 300.29376065 56.25101383 300.29218237 59.29614258 300.29052734 C61.48634571 300.29651503 63.67654673 300.30332113 65.866745 300.31088257 C71.80484832 300.32852459 77.74289397 300.33323718 83.68102098 300.33451414 C87.3938413 300.33593724 91.10664703 300.34020983 94.81946373 300.34550858 C107.11209011 300.36304875 119.40468134 300.37234957 131.69732038 300.37084763 C132.3589942 300.37076772 133.02066803 300.3706878 133.70239258 300.37060547 C134.696125 300.37048283 134.696125 300.37048283 135.70993283 300.37035771 C146.44295379 300.36954505 157.17583434 300.38868124 167.90881471 300.4168822 C178.94822351 300.44565783 189.98756055 300.45905425 201.02700728 300.45769465 C207.21727044 300.45718546 213.40737459 300.46284521 219.59760475 300.48405075 C225.4212493 300.50345661 231.24458353 300.50354129 237.06823921 300.48901749 C239.2002686 300.48693128 241.33231754 300.49161899 243.46431351 300.5037384 C257.8820951 300.58036071 268.91617313 299.52812609 281 291 C281.845625 290.443125 282.69125 289.88625 283.5625 289.3125 C293.89695556 279.50801652 298.74189238 266.688426 299.18360138 252.66365051 C299.28574328 247.29480835 299.27067436 241.9262059 299.25878906 236.55664062 C299.26150263 234.49407325 299.26506562 232.43150685 299.26940918 230.36894226 C299.27849187 224.79256226 299.27500595 219.21625664 299.26865101 213.63987541 C299.26356964 207.79006635 299.26828839 201.94026343 299.27142334 196.0904541 C299.27505676 186.26878726 299.27028025 176.44715054 299.26074219 166.62548828 C299.24985886 155.28799795 299.25338488 143.95057958 299.264395 132.61309099 C299.27348564 122.85990552 299.27474446 113.10674164 299.26951766 103.3535533 C299.26640774 97.53674103 299.26596169 91.71996253 299.27259064 85.90315247 C299.27838934 80.43328819 299.27432111 74.96351623 299.26280212 69.49366188 C299.26016902 67.49225327 299.26089743 65.49083682 299.26532745 63.48943138 C299.30220606 45.12846678 298.08684085 29.03462247 285.03515625 14.8671875 C274.81567812 5.14667123 262.71036705 0.67532871 248.78443909 0.73930359 C247.88965581 0.73547804 246.99487254 0.73165249 246.07297462 0.72771102 C243.09229014 0.71744064 240.11180044 0.72136179 237.13110352 0.7253418 C234.98691633 0.72099205 232.8427307 0.71580803 230.69854736 0.70985413 C224.88660112 0.69648189 219.07471998 0.69588344 213.26276135 0.69841743 C208.40687155 0.69948823 203.55099487 0.69460102 198.69510788 0.689812 C187.23805345 0.67872319 175.78103181 0.67827606 164.32397461 0.68432617 C152.5121741 0.69036776 140.70049266 0.67804874 128.88871247 0.6567561 C118.73901758 0.63913372 108.58936057 0.63313971 98.43965095 0.63639385 C92.3813862 0.63820564 86.3232064 0.63558061 80.26495552 0.62167931 C74.56775363 0.60909512 68.87073728 0.61105082 63.17353821 0.62409019 C61.08582433 0.62645413 58.99809736 0.62372788 56.91039848 0.61546707 C54.05423299 0.60498263 51.19868813 0.61311399 48.34254456 0.6257782 C47.11187684 0.61471677 47.11187684 0.61471677 45.85634714 0.60343188 C32.76869272 0.72499766 19.98885119 7.39178229 11.75 17.484375 Z " fill="#FCFCF8" transform="translate(0,0)"/>
<path d="M0 0 C0.88365234 -0.00386719 1.76730469 -0.00773438 2.67773438 -0.01171875 C3.59748047 -0.00011719 4.51722656 0.01148438 5.46484375 0.0234375 C6.38845703 0.01183594 7.31207031 0.00023437 8.26367188 -0.01171875 C9.14603516 -0.00785156 10.02839844 -0.00398437 10.9375 0 C12.14998413 0.00507568 12.14998413 0.00507568 13.38696289 0.01025391 C14.05203857 0.13835449 14.71711426 0.26645508 15.40234375 0.3984375 C18.3252922 4.78286017 17.7320188 8.80498696 17.71484375 13.9609375 C17.73095703 14.93224609 17.74707031 15.90355469 17.76367188 16.90429688 C17.76431641 17.83177734 17.76496094 18.75925781 17.765625 19.71484375 C17.76860596 20.56506104 17.77158691 21.41527832 17.7746582 22.29125977 C17.65179443 22.98662842 17.52893066 23.68199707 17.40234375 24.3984375 C13.2349735 27.17668433 9.79999314 26.76616016 4.90234375 26.7734375 C4.03480469 26.79792969 3.16726562 26.82242188 2.2734375 26.84765625 C-3.90377566 26.87629866 -3.90377566 26.87629866 -6.66796875 24.97265625 C-8.121741 20.94729528 -8.02998676 17.08158004 -7.97265625 12.8359375 C-7.98425781 11.97291016 -7.99585937 11.10988281 -8.0078125 10.22070312 C-8.00394531 9.39119141 -8.00007813 8.56167969 -7.99609375 7.70703125 C-7.99270996 6.95220459 -7.98932617 6.19737793 -7.98583984 5.41967773 C-7.10517195 0.83411201 -4.29001052 0.01793376 0 0 Z " fill="#1E191E" transform="translate(91.59765625,165.6015625)"/>
<path d="M0 0 C0.87914062 0.00064453 1.75828125 0.00128906 2.6640625 0.00195312 C4.03691406 0.02612305 4.03691406 0.02612305 5.4375 0.05078125 C6.35273438 0.04755859 7.26796875 0.04433594 8.2109375 0.04101562 C15.03667092 0.09606186 15.03667092 0.09606186 18.4375 2.36328125 C18.82568359 4.37866211 18.82568359 4.37866211 18.8359375 6.828125 C18.84173828 8.15166992 18.84173828 8.15166992 18.84765625 9.50195312 C18.83605469 10.42556641 18.82445312 11.34917969 18.8125 12.30078125 C18.82410156 13.22052734 18.83570313 14.14027344 18.84765625 15.08789062 C18.84378906 15.97154297 18.83992188 16.85519531 18.8359375 17.765625 C18.83255371 18.57507568 18.82916992 19.38452637 18.82568359 20.21850586 C18.33711283 22.91793616 17.67269293 23.79182592 15.4375 25.36328125 C13.30859375 25.75146484 13.30859375 25.75146484 10.875 25.76171875 C9.99585938 25.76558594 9.11671875 25.76945312 8.2109375 25.7734375 C7.29570312 25.76183594 6.38046875 25.75023437 5.4375 25.73828125 C4.06464844 25.75568359 4.06464844 25.75568359 2.6640625 25.7734375 C1.78492188 25.76957031 0.90578125 25.76570313 0 25.76171875 C-1.20462891 25.75664307 -1.20462891 25.75664307 -2.43359375 25.75146484 C-5.11571815 25.26240776 -5.99175128 24.57618719 -7.5625 22.36328125 C-7.95068359 20.32617188 -7.95068359 20.32617188 -7.9609375 18.01953125 C-7.96480469 17.18550781 -7.96867188 16.35148438 -7.97265625 15.4921875 C-7.95525391 14.19087891 -7.95525391 14.19087891 -7.9375 12.86328125 C-7.94910156 11.99574219 -7.96070313 11.12820312 -7.97265625 10.234375 C-7.96685547 8.98333984 -7.96685547 8.98333984 -7.9609375 7.70703125 C-7.95755371 6.94583984 -7.95416992 6.18464844 -7.95068359 5.40039062 C-7.0770342 0.81565442 -4.29496677 -0.01594239 0 0 Z " fill="#211B20" transform="translate(195.5625,131.63671875)"/>
<path d="M0 0 C0.83402344 -0.00386719 1.66804687 -0.00773438 2.52734375 -0.01171875 C3.82865234 0.00568359 3.82865234 0.00568359 5.15625 0.0234375 C6.02378906 0.01183594 6.89132813 0.00023437 7.78515625 -0.01171875 C9.03619141 -0.00591797 9.03619141 -0.00591797 10.3125 0 C11.45428711 0.00507568 11.45428711 0.00507568 12.61914062 0.01025391 C15.25161482 0.51188789 16.11618427 1.21612776 17.65625 3.3984375 C18.04443359 5.63500977 18.04443359 5.63500977 18.0546875 8.21484375 C18.06048828 9.60799805 18.06048828 9.60799805 18.06640625 11.02929688 C18.05480469 11.99673828 18.04320312 12.96417969 18.03125 13.9609375 C18.04285156 14.93224609 18.05445313 15.90355469 18.06640625 16.90429688 C18.06253906 17.83177734 18.05867188 18.75925781 18.0546875 19.71484375 C18.05130371 20.56506104 18.04791992 21.41527832 18.04443359 22.29125977 C17.85228271 23.33431274 17.85228271 23.33431274 17.65625 24.3984375 C13.48481144 27.17939654 10.05662332 26.72914097 5.15625 26.7109375 C4.28871094 26.72705078 3.42117187 26.74316406 2.52734375 26.75976562 C1.69332031 26.76041016 0.85929687 26.76105469 0 26.76171875 C-0.76119141 26.76469971 -1.52238281 26.76768066 -2.30664062 26.77075195 C-4.93951247 26.28955234 -5.79936351 25.57002419 -7.34375 23.3984375 C-7.73193359 21.26953125 -7.73193359 21.26953125 -7.7421875 18.8359375 C-7.74605469 17.95679688 -7.74992187 17.07765625 -7.75390625 16.171875 C-7.74230469 15.25664062 -7.73070313 14.34140625 -7.71875 13.3984375 C-7.73615234 12.02558594 -7.73615234 12.02558594 -7.75390625 10.625 C-7.75003906 9.74585938 -7.74617188 8.86671875 -7.7421875 7.9609375 C-7.73711182 6.75630859 -7.73711182 6.75630859 -7.73193359 5.52734375 C-6.909099 1.01469113 -4.27275003 0.01899402 0 0 Z " fill="#201B1E" transform="translate(126.34375,165.6015625)"/>
<path d="M0 0 C1.31871094 -0.00580078 1.31871094 -0.00580078 2.6640625 -0.01171875 C3.57929688 -0.00011719 4.49453125 0.01148438 5.4375 0.0234375 C6.81035156 0.00603516 6.81035156 0.00603516 8.2109375 -0.01171875 C9.09007812 -0.00785156 9.96921875 -0.00398437 10.875 0 C12.07962891 0.00507568 12.07962891 0.00507568 13.30859375 0.01025391 C15.98356898 0.49800742 16.86260098 1.19984373 18.4375 3.3984375 C18.82568359 5.32788086 18.82568359 5.32788086 18.8359375 7.48828125 C18.84173828 8.66487305 18.84173828 8.66487305 18.84765625 9.86523438 C18.83605469 10.68056641 18.82445312 11.49589844 18.8125 12.3359375 C18.82410156 13.14740234 18.83570313 13.95886719 18.84765625 14.79492188 C18.84378906 15.58060547 18.83992188 16.36628906 18.8359375 17.17578125 C18.83255371 17.88984131 18.82916992 18.60390137 18.82568359 19.33959961 C18.30960725 22.07675167 17.39724122 23.42863936 15.4375 25.3984375 C13.30859375 25.91601562 13.30859375 25.91601562 10.875 25.9296875 C9.99585938 25.93484375 9.11671875 25.94 8.2109375 25.9453125 C7.29570312 25.92984375 6.38046875 25.914375 5.4375 25.8984375 C4.06464844 25.92164063 4.06464844 25.92164063 2.6640625 25.9453125 C1.34535156 25.93757813 1.34535156 25.93757813 0 25.9296875 C-0.80308594 25.92517578 -1.60617188 25.92066406 -2.43359375 25.91601562 C-4.5625 25.3984375 -4.5625 25.3984375 -6.32275391 23.62915039 C-7.65601331 21.23017615 -7.94806051 19.89313176 -7.9609375 17.17578125 C-7.96480469 16.39009766 -7.96867187 15.60441406 -7.97265625 14.79492188 C-7.96105469 13.98345703 -7.94945313 13.17199219 -7.9375 12.3359375 C-7.94910156 11.52060547 -7.96070312 10.70527344 -7.97265625 9.86523438 C-7.96878906 9.08083984 -7.96492188 8.29644531 -7.9609375 7.48828125 C-7.95586182 6.41888306 -7.95586182 6.41888306 -7.95068359 5.32788086 C-7.04517052 0.82708222 -4.20724292 0.01772715 0 0 Z " fill="#201A1F" transform="translate(126.5625,200.6015625)"/>
<path d="M0 0 C1.25103516 0.0009668 1.25103516 0.0009668 2.52734375 0.00195312 C3.39488281 0.01806641 4.26242188 0.03417969 5.15625 0.05078125 C6.45755859 0.04594727 6.45755859 0.04594727 7.78515625 0.04101562 C14.25535409 0.09601731 14.25535409 0.09601731 17.65625 2.36328125 C18.02856445 4.48632812 18.02856445 4.48632812 18.01953125 7.08203125 C18.01888672 8.01402344 18.01824219 8.94601563 18.01757812 9.90625 C18.00146484 10.88207031 17.98535156 11.85789063 17.96875 12.86328125 C17.97358398 14.32701172 17.97358398 14.32701172 17.97851562 15.8203125 C17.92316529 23.09636596 17.92316529 23.09636596 15.65625 25.36328125 C12.36381396 25.81197786 9.03827257 25.68736367 5.71875 25.67578125 C4.33913086 25.69995117 4.33913086 25.69995117 2.93164062 25.72460938 C1.60616211 25.72557617 1.60616211 25.72557617 0.25390625 25.7265625 C-0.55554443 25.72954346 -1.36499512 25.73252441 -2.19897461 25.7355957 C-4.90021199 25.26668426 -5.76777476 24.59029065 -7.34375 22.36328125 C-7.73193359 20.32617188 -7.73193359 20.32617188 -7.7421875 18.01953125 C-7.74605469 17.18550781 -7.74992187 16.35148438 -7.75390625 15.4921875 C-7.73650391 14.19087891 -7.73650391 14.19087891 -7.71875 12.86328125 C-7.73035156 11.99574219 -7.74195312 11.12820312 -7.75390625 10.234375 C-7.74810547 8.98333984 -7.74810547 8.98333984 -7.7421875 7.70703125 C-7.73880371 6.94583984 -7.73541992 6.18464844 -7.73193359 5.40039062 C-6.88259008 0.9432068 -4.2095146 -0.01648519 0 0 Z " fill="#1F181D" transform="translate(91.34375,200.63671875)"/>
<path d="M0 0 C0.83402344 -0.00386719 1.66804688 -0.00773438 2.52734375 -0.01171875 C3.82865234 0.00568359 3.82865234 0.00568359 5.15625 0.0234375 C6.02378906 0.01183594 6.89132813 0.00023437 7.78515625 -0.01171875 C9.03619141 -0.00591797 9.03619141 -0.00591797 10.3125 0 C11.45428711 0.00507568 11.45428711 0.00507568 12.61914062 0.01025391 C15.24480413 0.51059007 16.11329482 1.22886339 17.65625 3.3984375 C18.04443359 5.54321289 18.04443359 5.54321289 18.0546875 7.99609375 C18.06048828 9.32157227 18.06048828 9.32157227 18.06640625 10.67382812 C18.05480469 11.59357422 18.04320313 12.51332031 18.03125 13.4609375 C18.04285156 14.38455078 18.05445312 15.30816406 18.06640625 16.25976562 C18.06253906 17.14212891 18.05867188 18.02449219 18.0546875 18.93359375 C18.04961182 20.14607788 18.04961182 20.14607788 18.04443359 21.38305664 C17.85228271 22.38067017 17.85228271 22.38067017 17.65625 23.3984375 C13.48481144 26.17939654 10.05662332 25.72914097 5.15625 25.7109375 C4.28871094 25.72705078 3.42117187 25.74316406 2.52734375 25.75976562 C1.69332031 25.76041016 0.85929687 25.76105469 0 25.76171875 C-0.76119141 25.76469971 -1.52238281 25.76768066 -2.30664062 25.77075195 C-4.93292499 25.29075631 -5.79630444 24.55744656 -7.34375 22.3984375 C-7.73193359 20.36132812 -7.73193359 20.36132812 -7.7421875 18.0546875 C-7.74605469 17.22066406 -7.74992187 16.38664063 -7.75390625 15.52734375 C-7.73650391 14.22603516 -7.73650391 14.22603516 -7.71875 12.8984375 C-7.73035156 12.03089844 -7.74195312 11.16335937 -7.75390625 10.26953125 C-7.74810547 9.01849609 -7.74810547 9.01849609 -7.7421875 7.7421875 C-7.73880371 6.98099609 -7.73541992 6.21980469 -7.73193359 5.43554688 C-6.88402628 0.98589993 -4.20286943 0.01868337 0 0 Z " fill="#201A1F" transform="translate(91.34375,131.6015625)"/>
<path d="M0 0 C0.86753906 -0.01998047 1.73507813 -0.03996094 2.62890625 -0.06054688 C8.78371523 -0.05579045 8.78371523 -0.05579045 11.5703125 1.86328125 C13.03025031 5.90571408 12.9322688 9.79915626 12.875 14.0625 C12.88660156 14.93390625 12.89820313 15.8053125 12.91015625 16.703125 C12.90628906 17.53585938 12.90242188 18.36859375 12.8984375 19.2265625 C12.89336182 20.36665771 12.89336182 20.36665771 12.88818359 21.52978516 C12.5 23.4375 12.5 23.4375 9.5 25.4375 C6.34739543 25.86255754 3.17824228 25.76180625 0 25.75 C-0.86753906 25.76611328 -1.73507813 25.78222656 -2.62890625 25.79882812 C-3.46292969 25.79947266 -4.29695313 25.80011719 -5.15625 25.80078125 C-5.91744141 25.80376221 -6.67863281 25.80674316 -7.46289062 25.80981445 C-10.08917499 25.32981881 -10.95255444 24.59650906 -12.5 22.4375 C-12.88818359 20.40039062 -12.88818359 20.40039062 -12.8984375 18.09375 C-12.90230469 17.25972656 -12.90617187 16.42570313 -12.91015625 15.56640625 C-12.89275391 14.26509766 -12.89275391 14.26509766 -12.875 12.9375 C-12.88660156 12.06996094 -12.89820312 11.20242187 -12.91015625 10.30859375 C-12.90435547 9.05755859 -12.90435547 9.05755859 -12.8984375 7.78125 C-12.89505371 7.02005859 -12.89166992 6.25886719 -12.88818359 5.47460938 C-11.6232265 -1.16363086 -5.35300668 -0.04374671 0 0 Z " fill="#211B1F" transform="translate(131.5,131.5625)"/>
<path d="M0 0 C0.83402344 -0.00386719 1.66804687 -0.00773438 2.52734375 -0.01171875 C3.82865234 0.00568359 3.82865234 0.00568359 5.15625 0.0234375 C6.02378906 0.01183594 6.89132813 0.00023437 7.78515625 -0.01171875 C9.03619141 -0.00591797 9.03619141 -0.00591797 10.3125 0 C11.45428711 0.00507568 11.45428711 0.00507568 12.61914062 0.01025391 C15.23716184 0.50913379 16.10805952 1.24487835 17.65625 3.3984375 C18.27845375 6.53539709 18.11983484 9.70660171 18.09375 12.8984375 C18.1237207 14.19974609 18.1237207 14.19974609 18.15429688 15.52734375 C18.14952712 21.69940843 18.14952712 21.69940843 16.1953125 24.46875 C12.32946203 25.88424602 8.67807961 25.83183141 4.59375 25.7734375 C3.77841797 25.78503906 2.96308594 25.79664063 2.12304688 25.80859375 C1.33865234 25.80472656 0.55425781 25.80085938 -0.25390625 25.796875 C-0.96683838 25.79349121 -1.67977051 25.79010742 -2.41430664 25.78662109 C-4.95586149 25.27528714 -5.82742482 24.48495228 -7.34375 22.3984375 C-7.73193359 20.36132812 -7.73193359 20.36132812 -7.7421875 18.0546875 C-7.74605469 17.22066406 -7.74992188 16.38664063 -7.75390625 15.52734375 C-7.73650391 14.22603516 -7.73650391 14.22603516 -7.71875 12.8984375 C-7.73035156 12.03089844 -7.74195313 11.16335937 -7.75390625 10.26953125 C-7.74810547 9.01849609 -7.74810547 9.01849609 -7.7421875 7.7421875 C-7.73880371 6.98099609 -7.73541992 6.21980469 -7.73193359 5.43554688 C-6.88402628 0.98589993 -4.20286943 0.01868337 0 0 Z " fill="#201A1F" transform="translate(161.34375,131.6015625)"/>
<path d="M0 0 C1.67578125 1.13671875 1.67578125 1.13671875 3 3 C3.29296875 5.91796875 3.29296875 5.91796875 3.1875 9.1875 C3.16042969 10.27417969 3.13335937 11.36085937 3.10546875 12.48046875 C3.07066406 13.31191406 3.03585938 14.14335937 3 15 C3.928125 15.268125 4.85625 15.53625 5.8125 15.8125 C10.37288136 17.5114656 10.37288136 17.5114656 12 20 C11.875 22.0625 11.875 22.0625 11 24 C7.5647952 26.29013653 6.014669 26.17842973 2 26 C2.05220703 27.01320312 2.05220703 27.01320312 2.10546875 28.046875 C2.13253906 28.93890625 2.15960938 29.8309375 2.1875 30.75 C2.23970703 32.07257813 2.23970703 32.07257813 2.29296875 33.421875 C1.94923684 36.44671583 0.99772541 37.75583602 -1 40 C-5.75 39.25 -5.75 39.25 -8 37 C-8.1953125 34.3984375 -8.1953125 34.3984375 -8.125 31.375 C-8.10695312 30.37210938 -8.08890625 29.36921875 -8.0703125 28.3359375 C-8.04710937 27.56507813 -8.02390625 26.79421875 -8 26 C-9.918125 26.061875 -9.918125 26.061875 -11.875 26.125 C-14.0546875 26.1953125 -14.0546875 26.1953125 -16 26 C-18 24 -18 24 -18.375 21.5625 C-18 19 -18 19 -16.3125 17.25 C-13.84746566 15.91754901 -11.74066883 15.49086606 -9 15 C-9.03480469 14.16855469 -9.06960937 13.33710938 -9.10546875 12.48046875 C-9.13253906 11.39378906 -9.15960938 10.30710938 -9.1875 9.1875 C-9.23970703 7.56908203 -9.23970703 7.56908203 -9.29296875 5.91796875 C-9 3 -9 3 -7.67578125 1.13671875 C-5.06649976 -0.63321345 -3.0622653 -0.38278316 0 0 Z " fill="#261F1F" transform="translate(208,195)"/>
<path d="M0 0 C1.75 0.125 1.75 0.125 4 1 C8 7 8 7 8 31 C-50.08 31 -108.16 31 -168 31 C-168 22.75 -168 14.5 -168 6 C-167.01 5.34 -166.02 4.68 -165 4 C-165.33 12.25 -165.66 20.5 -166 29 C-109.24 29 -52.48 29 6 29 C7.39981602 7.64715066 7.39981602 7.64715066 0 0 Z " fill="#B1C091" transform="translate(229,71)"/>
<path d="M0 0 C1.24007812 0.01546875 2.48015625 0.0309375 3.7578125 0.046875 C6.875 0.25 6.875 0.25 8.875 1.25 C8.43311468 5.61863891 5.84647697 7.32769001 2.625 10.0625 C-1.66862286 13.79929904 -5.07723907 17.43257143 -8.125 22.25 C-8.785 23.24 -9.445 24.23 -10.125 25.25 C-12.4970435 22.8779565 -11.40608556 17.05832945 -11.4375 13.875 C-11.46650391 12.90304688 -11.49550781 11.93109375 -11.52539062 10.9296875 C-11.53376953 9.99640625 -11.54214844 9.063125 -11.55078125 8.1015625 C-11.56536377 7.24385254 -11.57994629 6.38614258 -11.5949707 5.50244141 C-11.125 3.25 -11.125 3.25 -9.30981445 1.46728516 C-6.16201255 -0.28653541 -3.57267349 -0.07458609 0 0 Z " fill="#1D181C" transform="translate(165.125,165.75)"/>
<path d="M0 0 C1.42753624 2.26726343 2.11867358 3.42204122 1.5684824 6.10155773 C0.81094265 9.96392046 0.84649027 13.7679447 0.84178162 17.68757629 C0.83684364 18.56164507 0.83190566 19.43571385 0.82681805 20.33626956 C0.81146334 23.26429826 0.8030879 26.19230506 0.79467773 29.12036133 C0.78509762 31.21959628 0.77508746 33.3188293 0.76467896 35.4180603 C0.7376383 41.11798335 0.71662415 46.81791468 0.69667697 52.51786637 C0.67481228 58.47430317 0.64742594 64.43071449 0.62062073 70.38713074 C0.57070041 81.66693587 0.5257591 92.94675515 0.48259836 104.22658795 C0.43322037 117.06807255 0.37830431 129.90953159 0.32291877 142.75099146 C0.20910885 169.16730379 0.10226763 195.58364064 0 222 C-0.33 222 -0.66 222 -1 222 C-1.02335056 193.94072361 -1.0409898 165.88144868 -1.05181217 137.82216454 C-1.05697053 124.79403738 -1.0640045 111.76591625 -1.07543945 98.73779297 C-1.0854003 87.38374503 -1.09185678 76.02970147 -1.09408849 64.67564929 C-1.09539321 58.66266058 -1.09846403 52.64968438 -1.10573006 46.63669968 C-1.11251233 40.97824775 -1.11461244 35.31981349 -1.11310768 29.66135788 C-1.11338301 27.58367822 -1.11537505 25.50599798 -1.11920547 23.42832184 C-1.12417715 20.59276695 -1.1229854 17.75727884 -1.12025452 14.92172241 C-1.12316736 14.09875463 -1.1260802 13.27578685 -1.12908131 12.42788064 C-1.11799581 8.17217822 -0.84531352 4.19219078 0 0 Z " fill="#DBDBB7" transform="translate(3,36)"/>
<path d="M0 0 C0.33 0.33 0.66 0.66 1 1 C2.11375 0.95875 3.2275 0.9175 4.375 0.875 C9.8473479 0.77550277 14.81405899 2.39845939 20 4 C16.85116042 5.01212701 15.15008108 4.83516384 12 4 C-0.79726646 3.08160794 -9.82164288 5.03432921 -20 13 C-18.52041491 9.0884532 -16.46042529 7.7725476 -12.875 5.75 C-11.96492187 5.22921875 -11.05484375 4.7084375 -10.1171875 4.171875 C-9.41851562 3.78515625 -8.71984375 3.3984375 -8 3 C-8.33 2.01 -8.66 1.02 -9 0 C-5.90842747 -1.54578627 -3.31526981 -0.60277633 0 0 Z " fill="#140D0A" transform="translate(200,176)"/>
<path d="M0 0 C-3.23907334 1.07969111 -3.88483359 0.88122526 -7 0 C-19.13498226 -0.9586636 -28.99047323 -0.58107614 -38.83984375 7.51171875 C-40.37204904 8.9415529 -40.37204904 8.9415529 -42 11 C-42.66 10.67 -43.32 10.34 -44 10 C-32.57819374 -3.12373104 -16.05382053 -6.75950338 0 0 Z " fill="#E8BD63" transform="translate(221,182)"/>
<path d="M0 0 C0.33 0 0.66 0 1 0 C1 6.93 1 13.86 1 21 C-0.32 21 -1.64 21 -3 21 C-3 20.01 -3 19.02 -3 18 C-3.66 18 -4.32 18 -5 18 C-5 12.39 -5 6.78 -5 1 C-4.67 1 -4.34 1 -4 1 C-3.67 4.63 -3.34 8.26 -3 12 C-1.26394487 10.26394487 -1.34388018 7.79450504 -0.9375 5.4375 C-0.76089844 4.42558594 -0.58429688 3.41367188 -0.40234375 2.37109375 C-0.20318359 1.19740234 -0.20318359 1.19740234 0 0 Z " fill="#CCD5B0" transform="translate(186,134)"/>
<path d="M0 0 C2 2 2 2 3 4 C1.948125 3.731875 0.89625 3.46375 -0.1875 3.1875 C-4.07207959 2.60019555 -4.07207959 2.60019555 -6.875 5.0625 C-9.49486543 8.22536555 -9.49486543 8.22536555 -10 14 C-16.27 14 -22.54 14 -29 14 C-29 13.67 -29 13.34 -29 13 C-23.39 13 -17.78 13 -12 13 C-12.0825 11.5975 -12.165 10.195 -12.25 8.75 C-12.22988235 5.55632282 -12.14506189 4.24781406 -10.5 1.4375 C-6.70416736 -0.74510377 -4.35503854 -0.55302077 0 0 Z " fill="#2F2D2B" transform="translate(170,45)"/>
<path d="M0 0 C3.06352514 0.21882322 4.00635964 1.00682726 6.125 3.28125 C9.22367813 8.13179517 8.41954216 13.83879623 8.25 19.375 C8.23195312 20.49261719 8.21390625 21.61023438 8.1953125 22.76171875 C8.14836439 25.5081829 8.07662688 28.25420362 8 31 C2.06 30.67 -3.88 30.34 -10 30 C-10 29.67 -10 29.34 -10 29 C-4.72 29 0.56 29 6 29 C5.9669223 25.289284 5.89965117 21.58451147 5.8125 17.875 C5.80669922 16.82828125 5.80089844 15.7815625 5.79492188 14.703125 C5.65997334 7.97056944 5.65997334 7.97056944 2.44921875 2.2578125 C1.64097656 1.51273437 0.83273438 0.76765625 0 0 Z " fill="#A8BB8D" transform="translate(229,71)"/>
<path d="M0 0 C0.33 0 0.66 0 1 0 C1.33 2.31 1.66 4.62 2 7 C5.96 7 9.92 7 14 7 C14.33 6.01 14.66 5.02 15 4 C15.66 2.68 16.32 1.36 17 0 C17 3.3 17 6.6 17 10 C11.39 10 5.78 10 0 10 C0 6.7 0 3.4 0 0 Z " fill="#D9DBC4" transform="translate(174,49)"/>
<path d="M0 0 C2.9559743 2.82745367 3.94648563 4.11907117 4.203125 8.34375 C4.55087716 26.73894741 4.55087716 26.73894741 -1.1875 33.625 C-2.0846875 34.305625 -2.0846875 34.305625 -3 35 C-1.1328757 29.26526109 -1.1328757 29.26526109 0.05859375 26.88671875 C1.40939643 22.74463085 1.25044282 18.82649068 1.1875 14.5 C1.18685547 13.65824219 1.18621094 12.81648437 1.18554688 11.94921875 C1.15645648 7.84424142 1.02520722 4.00240899 0 0 Z " fill="#E5B75B" transform="translate(237,200)"/>
<path d="M0 0 C3 0.25 3 0.25 5 2.25 C5.1953125 5.2890625 5.1953125 5.2890625 5.125 8.875 C5.10695312 10.06351563 5.08890625 11.25203125 5.0703125 12.4765625 C5.04710937 13.39179688 5.02390625 14.30703125 5 15.25 C4.67 15.25 4.34 15.25 4 15.25 C3.95101562 14.39535156 3.90203125 13.54070312 3.8515625 12.66015625 C3.77679688 11.55542969 3.70203125 10.45070312 3.625 9.3125 C3.55539063 8.21035156 3.48578125 7.10820312 3.4140625 5.97265625 C3.27742187 5.07417969 3.14078125 4.17570313 3 3.25 C2.34 2.92 1.68 2.59 1 2.25 C1 2.91 1 3.57 1 4.25 C1.66 4.58 2.32 4.91 3 5.25 C1.34385343 5.63218767 -0.32457024 5.96395102 -2 6.25 C-2.33 5.92 -2.66 5.59 -3 5.25 C-3.33 8.55 -3.66 11.85 -4 15.25 C-4.33 15.25 -4.66 15.25 -5 15.25 C-5.05386629 13.12527424 -5.09273071 11.00016348 -5.125 8.875 C-5.14820313 7.69164062 -5.17140625 6.50828125 -5.1953125 5.2890625 C-4.92762355 1.12382242 -4.15704512 0.34642043 0 0 Z " fill="#17100F" transform="translate(205,194.75)"/>
<path d="M0 0 C0.66 0.33 1.32 0.66 2 1 C2.05379226 3.95857409 2.09357093 6.91617721 2.125 9.875 C2.15013672 11.13763672 2.15013672 11.13763672 2.17578125 12.42578125 C2.18222656 13.23144531 2.18867188 14.03710938 2.1953125 14.8671875 C2.21102295 15.98262939 2.21102295 15.98262939 2.22705078 17.12060547 C2 19 2 19 0 21 C-1.9395114 19.0604886 -1.13256629 16.1879288 -1.13671875 13.61132812 C-1.13091797 12.3496582 -1.13091797 12.3496582 -1.125 11.0625 C-1.12886719 10.22525391 -1.13273438 9.38800781 -1.13671875 8.52539062 C-1.13542969 7.72423828 -1.13414062 6.92308594 -1.1328125 6.09765625 C-1.13168457 5.36039307 -1.13055664 4.62312988 -1.12939453 3.86352539 C-1 2 -1 2 0 0 Z " fill="#2A2829" transform="translate(143,203)"/>
<path d="M0 0 C0.83265381 0.00523682 1.66530762 0.01047363 2.52319336 0.01586914 C3.42231445 0.0190918 4.32143555 0.02231445 5.24780273 0.02563477 C6.66609375 0.03820312 6.66609375 0.03820312 8.11303711 0.05102539 C9.06243164 0.05553711 10.01182617 0.06004883 10.98999023 0.06469727 C13.34356776 0.07652429 15.69702188 0.09300514 18.05053711 0.11352539 C18.05053711 0.77352539 18.05053711 1.43352539 18.05053711 2.11352539 C17.49068115 2.12810791 16.9308252 2.14269043 16.35400391 2.15771484 C13.81465574 2.23223891 11.27661633 2.3288812 8.73803711 2.42602539 C7.85696289 2.44858398 6.97588867 2.47114258 6.06811523 2.49438477 C4.79677734 2.54755859 4.79677734 2.54755859 3.49975586 2.60180664 C2.71947021 2.62799072 1.93918457 2.6541748 1.13525391 2.68115234 C-1.39867455 3.20669249 -2.31874066 4.15437799 -3.94946289 6.11352539 C-2.88228999 0.16784782 -2.88228999 0.16784782 0 0 Z " fill="#171314" transform="translate(192.949462890625,131.886474609375)"/>
<path d="M0 0 C0.33 0.66 0.66 1.32 1 2 C7.93 2.33 14.86 2.66 22 3 C21.67 3.66 21.34 4.32 21 5 C17.87507749 5.05791844 14.75029234 5.09356746 11.625 5.125 C10.73554688 5.14175781 9.84609375 5.15851563 8.9296875 5.17578125 C8.07890625 5.18222656 7.228125 5.18867188 6.3515625 5.1953125 C5.17327881 5.21102295 5.17327881 5.21102295 3.97119141 5.22705078 C2 5 2 5 0 3 C0 2.01 0 1.02 0 0 Z " fill="#110E0F" transform="translate(120,187)"/>
<path d="M0 0 C6.27 0 12.54 0 19 0 C18.67 0.99 18.34 1.98 18 3 C15.37438891 3.08074203 12.75124324 3.1403623 10.125 3.1875 C9.00544922 3.22520508 9.00544922 3.22520508 7.86328125 3.26367188 C5.6953125 3.29296875 5.6953125 3.29296875 2 3 C1.34 2.01 0.68 1.02 0 0 Z " fill="#292625" transform="translate(87,201)"/>
<path d="M0 0 C0.33 0 0.66 0 1 0 C1.66 4.29 2.32 8.58 3 13 C3.66 12.67 4.32 12.34 5 12 C3.87548273 14.9719385 2.77706209 17.33440687 1 20 C0 19 0 19 -0.11352539 17.14233398 C-0.10828857 16.35157471 -0.10305176 15.56081543 -0.09765625 14.74609375 C-0.09443359 13.89208984 -0.09121094 13.03808594 -0.08789062 12.15820312 C-0.07951172 11.26037109 -0.07113281 10.36253906 -0.0625 9.4375 C-0.05798828 8.53580078 -0.05347656 7.63410156 -0.04882812 6.70507812 C-0.03700225 4.46998686 -0.0205222 2.23502563 0 0 Z " fill="#0B0A0B" transform="translate(154,171)"/>
<path d="M0 0 C0.33 0 0.66 0 1 0 C1.22366479 2.68699992 1.42927009 5.37343797 1.625 8.0625 C1.68945312 8.81466797 1.75390625 9.56683594 1.8203125 10.34179688 C2.17033804 15.39529063 1.66655961 19.21023136 0 24 C-0.33 24 -0.66 24 -1 24 C-1.11547323 15.92970447 -0.90041311 8.02332397 0 0 Z " fill="#2A2522" transform="translate(249,208)"/>
<path d="M0 0 C2.6201785 3.93026776 2.96025731 7.32625942 3 12 C2.0625 15.5625 2.0625 15.5625 1 18 C0.67 18 0.34 18 0 18 C0 12.06 0 6.12 0 0 Z " fill="#DCA952" transform="translate(170,206)"/>
<path d="M0 0 C-0.33 1.32 -0.66 2.64 -1 4 C-1.66 3.67 -2.32 3.34 -3 3 C-3 2.34 -3 1.68 -3 1 C-4.99983534 1.79117904 -4.99983534 1.79117904 -7 3 C-7.33 3.99 -7.66 4.98 -8 6 C-10 3 -10 3 -10 0 C-6.22996568 -2.61002376 -4.07631429 -1.66758312 0 0 Z " fill="#242124" transform="translate(249,197)"/>
<path d="M0 0 C0.33 0 0.66 0 1 0 C1.06058594 1.12019531 1.12117187 2.24039063 1.18359375 3.39453125 C1.26801424 4.86719984 1.35266149 6.33985544 1.4375 7.8125 C1.47681641 8.55048828 1.51613281 9.28847656 1.55664062 10.04882812 C1.74381035 13.23071342 1.98720793 15.96162378 3 19 C2.34 19.99 1.68 20.98 1 22 C0.34 22 -0.32 22 -1 22 C-0.67 14.74 -0.34 7.48 0 0 Z " fill="#CBD2AC" transform="translate(146,169)"/>
<path d="M0 0 C2.33294775 -0.04241723 4.66702567 -0.04092937 7 0 C8 1 8 1 8.11352539 2.85766602 C8.10828857 3.64842529 8.10305176 4.43918457 8.09765625 5.25390625 C8.09443359 6.10791016 8.09121094 6.96191406 8.08789062 7.84179688 C8.07951172 8.73962891 8.07113281 9.63746094 8.0625 10.5625 C8.05798828 11.46419922 8.05347656 12.36589844 8.04882812 13.29492188 C8.03700225 15.53001314 8.0205222 17.76497437 8 20 C7.67 20 7.34 20 7 20 C6.67 14.39 6.34 8.78 6 3 C4.02 2.34 2.04 1.68 0 1 C0 0.67 0 0.34 0 0 Z " fill="#040303" transform="translate(101,202)"/>
<path d="M0 0 C4.95 0 9.9 0 15 0 C15.33 0.99 15.66 1.98 16 3 C15.01 3.66 14.02 4.32 13 5 C12.34 3.68 11.68 2.36 11 1 C7.37 1 3.74 1 0 1 C0 0.67 0 0.34 0 0 Z " fill="#292527" transform="translate(157,168)"/>
<path d="M0 0 C-2 1.33333333 -4 2.66666667 -6 4 C-6.72382467 6.05925139 -6.72382467 6.05925139 -7 8 C-6.34 8.33 -5.68 8.66 -5 9 C-6.32 8.67 -7.64 8.34 -9 8 C-9.25 5.6875 -9.25 5.6875 -9 3 C-6.19926731 -0.00819437 -4.01012625 -0.33417719 0 0 Z " fill="#1F130A" transform="translate(199,211)"/>
<path d="M0 0 C0.66 0.33 1.32 0.66 2 1 C2 3.64 2 6.28 2 9 C1.01 9 0.02 9 -1 9 C-1.09765625 2.84765625 -1.09765625 2.84765625 -1 1 C-0.67 0.67 -0.34 0.34 0 0 Z " fill="#302E2E" transform="translate(138,50)"/>
<path d="M0 0 C2.98704569 0.49784095 4.39324263 1.26216175 7 3 C4.03 3.66 1.06 4.32 -2 5 C-1 1 -1 1 0 0 Z " fill="#1E181C" transform="translate(122,132)"/>
<path d="M0 0 C0.66 0.66 1.32 1.32 2 2 C4.32275177 2.40047444 6.65739357 2.7397104 9 3 C8.67 3.66 8.34 4.32 8 5 C2.55072464 6.27536232 2.55072464 6.27536232 0 5 C0 3.35 0 1.7 0 0 Z " fill="#262224" transform="translate(92,78)"/>
<path d="M0 0 C1.98 0.495 1.98 0.495 4 1 C3.34 2.98 2.68 4.96 2 7 C1.01 6.67 0.02 6.34 -1 6 C-0.67 4.02 -0.34 2.04 0 0 Z " fill="#2E2A28" transform="translate(52,72)"/>
<path d="M0 0 C1.32 0.33 2.64 0.66 4 1 C4 1.66 4 2.32 4 3 C2.37373596 4.38232443 0.7074998 5.71937515 -1 7 C-1.66 6.67 -2.32 6.34 -3 6 C-2 4 -1 2 0 0 Z " fill="#D9DABF" transform="translate(243,243)"/>
<path d="M0 0 C0 0.99 0 1.98 0 3 C-3.3 2.67 -6.6 2.34 -10 2 C-10 1.67 -10 1.34 -10 1 C-6.59437148 0.22157062 -3.49234244 -0.09978121 0 0 Z " fill="#302B2C" transform="translate(217,257)"/>
<path d="M0 0 C0.66 0.33 1.32 0.66 2 1 C1.01 2.485 1.01 2.485 0 4 C-0.45139459 6.0492094 -0.45139459 6.0492094 -0.625 8.1875 C-0.74875 9.445625 -0.8725 10.70375 -1 12 C-1.33 12 -1.66 12 -2 12 C-2.05395478 10.37536158 -2.09277195 8.75021459 -2.125 7.125 C-2.14820313 6.22007813 -2.17140625 5.31515625 -2.1953125 4.3828125 C-2 2 -2 2 0 0 Z " fill="#090707" transform="translate(194,46)"/>
</svg>
